<svg xmlns="http://www.w3.org/2000/svg" viewBox="0 0 299.44 220.28"><defs><style>.cls-1{fill:#070707;}</style></defs><g id="Layer_2" data-name="Layer 2"><g id="Layer_1-2" data-name="Layer 1"><path class="cls-1" d="M126.8,14.71c-10.1-.57-24.83,3.72-31.27,16.62-3.74,7.49-5.21,18.94.73,27.48,10.53,15.14,38.94,13.37,45.68,2.1,3.16-5.29,2.17-14.4-1.42-19.56A15.27,15.27,0,0,0,134.14,36c-9.48-4.78-19.1-2.88-22.66,2.58-2.19,3.36-1.66,7.45-1.19,9.58,0,.34.41,6.53,5.73,9.44a11.44,11.44,0,0,0,13.08-1.76c5.15-10.55-3-14.56-6.31-11s1.49,3.67,1.49,3.67c-4.47,5.73-8.48-1.14-8.48-1.14,0-4.3,1.36-6.81,3.06-8.26,2.38-2,7.6-1.72,7.6-1.72s8.3,3.65,10.64,8.92c2,4.51-.48,10.56-3.76,14.47-5.39,6.42-27.06,8.25-29.24-7.11s2.64-23.16,16.63-27.17S144,35.92,144,35.92l1.49-6,4.13-7.8V50.82c.84,8.39-1,12.66-2.87,15-.78,1-2.73,3.06-2.73,5.93a7.49,7.49,0,0,0,1.24,3.82c2,3.32,4.55,11.85,4.55,11.85-6.75-13.38-21.4-8.71-26.1-6.78a33.44,33.44,0,0,1,3.9,0,34.35,34.35,0,0,1,4.74.6,3.39,3.39,0,1,1-.58,1.89,2.4,2.4,0,0,1,0-.28,34.76,34.76,0,0,0-8.58-.21c10.37,12.79,26.28,7.52,26.28,7.52-1.95,6.31-13.87,6.31-13.87,6.31,4.47,8.94,14.91,8.14,14.91,8.14-2.64,3.66-8.72.57-8.72.57a31.18,31.18,0,0,1,7.34,24.08c-.71,7-3.23,12.06-5.55,16.61a67,67,0,0,1-5.46,8.95c-3.78,16.63,6.08,19.61,6.08,19.61,7.34,6.76,7.87,14.56,7.87,14.56-4.62-8.83-8.9-11.7-8.9-11.7-12.73-6.53-7.57-23.73-7.57-23.73-11.58,15.59.92,35.08.92,35.08,16,19.72,13.26,31.65,13.26,31.65-4.59-18.81-15.13-29.2-15.13-29.2C120.15,166,133.22,151,133.22,151c-1.14,1.07-8.86,4-8.86,4C111.13,159.28,109,168.07,109,168.07c-2.29-8.86,9.63-18.11,9.63-18.11-6.72.3-11.61-6.73-11.61-6.73a64,64,0,0,0-23.7-12.91c6-2.3,22,2.75,22,2.75-.53-8.87,4.06-18.58,4.06-18.58,7-21-6.12-34.47-6.12-34.47,15.32,9.14,16.93,26.46,17,31.71l3.3-3.26a1.7,1.7,0,1,1,1.54,1,1.4,1.4,0,0,1-.41-.06l-3.95,3.81c2.81-.29,17-1,18.7,13.28,1.91,15.9-13.6,15.29-13.6,15.29-4.82-1-7.32-3-8.47-5.25a9.33,9.33,0,0,1-.58-6,21.18,21.18,0,0,1,2.4-5.75c13.37-5.58,9.93,7.72,9.93,7.72l-2.83-3.48c-.16,0-2.17-.12-3,1.19-1,1.48.13,3.74,1.53,4.73a5,5,0,0,0,5.88-.53c2.55-3.16,2.82-5.38,2.49-6.9-.57-2.59-3.41-5.56-3.41-5.56-15.74-8.56-17.88,9.48-17.88,9.48,2,20.33,22.78,11.16,22.78,11.16,14.82-9.17,5.8-27.21,5.8-27.21-2.9-12.69-35.92-37.76-35.92-37.76C90.4,69.93,86.2,57.13,85.1,48.15c.06,1.57.18,3,.33,4.18A53,53,0,0,0,88,63.05a86.44,86.44,0,0,0,4.13,9.63,170.06,170.06,0,0,1,6.56,15.84c3.2,9.35,3.24,13.68,3.24,14.88a33,33,0,0,1-.65,6.35c.79,1.07,1.09,4.34.78,7-.47,4-2.55,8.29-3.78,8.08s-1.61-4.44-1.15-7.74c.43-3,1.76-6.3,2.9-7.34a36.53,36.53,0,0,0,.45-8.39A42.94,42.94,0,0,0,98,90.28c-2.21-6.85-3.86-9.4-7.28-17.37-3.13-7.27-4.69-10.9-5.68-14.79a51.3,51.3,0,0,1-1-5.09,52.38,52.38,0,0,0-.51,6.16,45.4,45.4,0,0,0,2,14c.89,3.57,3.79,15.28,3.83,18.82,0,.2,0,.4,0,.4a32.17,32.17,0,0,1-.66,6.34,14.5,14.5,0,0,1,.79,7c-.48,3.37-2.32,7.12-3.51,6.94s-1.67-3.86-1.42-6.6a14.38,14.38,0,0,1,2.9-7.33,36.67,36.67,0,0,0,.45-8.4c-.29-4.55-1.34-7.41-2.39-11.06A112.69,112.69,0,0,1,82.09,61.6C82,60.6,82,55.38,82,45c-1,4.29-1.37,9-1.83,15.62s-.12,10-1.22,18.6c-.25,2-.5,3.56-.67,4.62A13.11,13.11,0,0,1,77.93,90c-1.05,3.43-3.7,6.74-4.78,6.33s-.78-4.78.52-8.09a15.57,15.57,0,0,1,3.15-4.92c.38-2.14.93-5.51,1.31-9.69.83-9,.1-10.6.69-19a69.4,69.4,0,0,1,1.63-11.51c-.74,2.1-1.66,4.77-2.66,8.07-.42,1.37-1,3.37-1.63,5.83-.75,2.87-1.19,5-1.29,5.46a56.48,56.48,0,0,0-1.21,6.88c-.26,3-.39,4.5-.4,5.33A10.7,10.7,0,0,1,73,77.19a12.25,12.25,0,0,1-.74,2.13c-.88,1.86-3.55,5.78-4.88,5.29s-1.56-5,.53-8.09a8.41,8.41,0,0,1,3.33-2.85c.25-1.56.59-3.58,1-5.93.27-1.48.6-3.32,1.09-5.68C74,59,74.7,55.4,76,50.77c.71-2.5.63-1.91,1-3.27.72-2.79,1-4.81,1.33-6.35a148.13,148.13,0,0,1-18.4,5.78C38.37,54.42,41.73,65.58,41.73,65.58,32.56,61,41,37.6,41,37.6l-4.89-7.68L32.1,22C19.41.76,0,2.21,0,2.21c28.78-6.3,43.34,2.87,43.34,2.87C46.55.15,63.86,1.19,63.86,1.19c9.4,6.21,41.73,6.64,41.73,6.64C101.07,13.17,82,11.61,78,11.56a24.87,24.87,0,0,1,2.2,1.51c.39.3.75.6,1.09.89a2,2,0,0,1,1-.28,2,2,0,1,1-1.71,1l-1.07-.85c-.8-.6-1.57-1.13-2.31-1.58a13.87,13.87,0,0,1,.13,3.22c-.08.93-.31,2.45-.31,2.45C70.17,43.72,51,32.25,49,28.35s-1-18.12,9.17-15.59,1.49,9.17,1.49,9.17c2.29-2.52-2.3-3.32-2.3-3.32-7.79,6.19,1.15,8.94,1.15,8.94,11,.57,12.15-8.9,12.15-8.9C72.31,12.23,65.27,8,57,7.49S32.41,17.73,46.78,33.17s38.83-5.05,38.83-5.05l0-.05.19-.24c.21-.24,29-19.43,29-19.43C109.56.57,80.25,3.51,80.25,3.51c60.23-9.93,70.48,15.29,70.48,15.29l-4.21,4.51L134.17,16A31,31,0,0,0,126.8,14.71Z"/><path class="cls-1" d="M172.64,14.71c10.1-.57,24.82,3.72,31.27,16.62,3.74,7.49,5.21,18.94-.73,27.48C192.65,74,164.24,72.18,157.5,60.91c-3.16-5.29-2.17-14.4,1.42-19.56A15.27,15.27,0,0,1,165.3,36c9.48-4.78,19.1-2.88,22.66,2.58,2.19,3.36,1.66,7.45,1.19,9.58,0,.34-.41,6.53-5.73,9.44a11.44,11.44,0,0,1-13.08-1.76c-5.16-10.55,3-14.56,6.31-11s-1.49,3.67-1.49,3.67c4.47,5.73,8.48-1.14,8.48-1.14,0-4.3-1.36-6.81-3.06-8.26-2.38-2-7.6-1.72-7.6-1.72s-8.3,3.65-10.64,8.92c-2,4.51.48,10.56,3.76,14.47,5.39,6.42,27.06,8.25,29.24-7.11s-2.64-23.16-16.63-27.17-23.27,9.4-23.27,9.4L154,30l-4.13-7.8V50.82c-.84,8.39,1,12.66,2.87,15,.78,1,2.73,3.06,2.73,5.93a7.49,7.49,0,0,1-1.24,3.82c-2,3.32-4.55,11.85-4.55,11.85,6.75-13.38,21.4-8.71,26.1-6.78a33.44,33.44,0,0,0-3.9,0,34.35,34.35,0,0,0-4.74.6,3.39,3.39,0,1,0,.58,1.89,2.4,2.4,0,0,0,0-.28,34.76,34.76,0,0,1,8.58-.21c-10.37,12.79-26.28,7.52-26.28,7.52,1.95,6.31,13.87,6.31,13.87,6.31-4.47,8.94-14.91,8.14-14.91,8.14,2.64,3.66,8.72.57,8.72.57a31,31,0,0,0-7.34,24.08c.71,7,3.23,12.06,5.55,16.61a67,67,0,0,0,5.46,8.95c3.78,16.63-6.08,19.61-6.08,19.61-7.34,6.76-7.87,14.56-7.87,14.56,4.62-8.83,8.9-11.7,8.9-11.7,12.73-6.53,7.57-23.73,7.57-23.73,11.58,15.59-.92,35.08-.92,35.08-16,19.72-13.26,31.65-13.26,31.65,4.59-18.81,15.13-29.2,15.13-29.2C179.29,166,166.22,151,166.22,151c1.14,1.07,8.86,4,8.86,4,13.23,4.35,15.37,13.14,15.37,13.14,2.29-8.86-9.64-18.11-9.64-18.11,6.73.3,11.62-6.73,11.62-6.73a64,64,0,0,1,23.7-12.91c-6-2.3-22,2.75-22,2.75.54-8.87-4.05-18.58-4.05-18.58-6.95-21,6.12-34.47,6.12-34.47-15.32,9.14-16.93,26.46-17.05,31.71l-3.3-3.26a1.7,1.7,0,1,0-1.54,1,1.4,1.4,0,0,0,.41-.06l4,3.81c-2.81-.29-17-1-18.7,13.28-1.91,15.9,13.6,15.29,13.6,15.29,4.82-1,7.32-3,8.47-5.25a9.23,9.23,0,0,0,.57-6,21,21,0,0,0-2.39-5.75c-13.37-5.58-9.93,7.72-9.93,7.72l2.83-3.48c.16,0,2.17-.12,3.05,1.19,1,1.48-.14,3.74-1.53,4.73a5,5,0,0,1-5.88-.53c-2.55-3.16-2.82-5.38-2.49-6.9.57-2.59,3.41-5.56,3.41-5.56,15.74-8.56,17.88,9.48,17.88,9.48-2,20.33-22.78,11.16-22.78,11.16-14.82-9.17-5.8-27.21-5.8-27.21,2.9-12.69,35.92-37.76,35.92-37.76,14.15-7.72,18.36-20.52,19.46-29.5-.06,1.57-.18,3-.33,4.18a53,53,0,0,1-2.52,10.72,88.39,88.39,0,0,1-4.13,9.63,170.06,170.06,0,0,0-6.56,15.84c-3.2,9.35-3.25,13.68-3.24,14.88a33,33,0,0,0,.65,6.35c-.79,1.07-1.09,4.34-.78,7,.47,4,2.54,8.29,3.78,8.08s1.61-4.44,1.15-7.74c-.43-3-1.77-6.3-2.9-7.34a36.53,36.53,0,0,1-.45-8.39,42.94,42.94,0,0,1,2.39-11.06c2.21-6.85,3.86-9.4,7.28-17.37,3.13-7.27,4.69-10.9,5.68-14.79a51.3,51.3,0,0,0,1-5.09,52.38,52.38,0,0,1,.51,6.16,45.4,45.4,0,0,1-2,14c-.9,3.57-3.8,15.28-3.83,18.82,0,.2,0,.4,0,.4a32.17,32.17,0,0,0,.66,6.34,14.5,14.5,0,0,0-.79,7c.48,3.37,2.32,7.12,3.51,6.94s1.67-3.86,1.42-6.6a14.38,14.38,0,0,0-2.9-7.33,36.67,36.67,0,0,1-.45-8.4c.29-4.55,1.34-7.41,2.39-11.06a112.69,112.69,0,0,0,3.44-17.63c.14-1,.13-6.22.11-16.65,1,4.29,1.38,9,1.84,15.62s.12,10,1.22,18.6c.25,2,.5,3.56.67,4.62a13.11,13.11,0,0,0,.32,6.22c1.05,3.43,3.7,6.74,4.78,6.33s.78-4.78-.52-8.09a15.57,15.57,0,0,0-3.15-4.92c-.38-2.14-.93-5.51-1.31-9.69-.84-9-.1-10.6-.69-19A71.6,71.6,0,0,0,219,43.16c.74,2.1,1.66,4.77,2.66,8.07.41,1.37,1,3.37,1.63,5.83.75,2.87,1.19,5,1.29,5.46a56.48,56.48,0,0,1,1.21,6.88c.26,3,.38,4.5.4,5.33a10.51,10.51,0,0,0,.28,2.46,12.81,12.81,0,0,0,.75,2.13c.88,1.86,3.55,5.78,4.88,5.29s1.55-5-.53-8.09a8.47,8.47,0,0,0-3.33-2.85c-.25-1.56-.59-3.58-1-5.93-.27-1.48-.6-3.32-1.09-5.68-.63-3.05-1.38-6.66-2.69-11.29-.71-2.5-.63-1.91-1-3.27-.72-2.79-1-4.81-1.33-6.35a148.13,148.13,0,0,0,18.4,5.78c21.55,7.49,18.19,18.65,18.19,18.65,9.17-4.59.76-28,.76-28l4.89-7.68,4-7.91C280,.76,299.44,2.21,299.44,2.21c-28.78-6.3-43.34,2.87-43.34,2.87-3.21-4.93-20.52-3.89-20.52-3.89-9.4,6.21-41.73,6.64-41.73,6.64,4.52,5.34,23.57,3.78,27.57,3.73a24.87,24.87,0,0,0-2.2,1.51c-.39.3-.75.6-1.1.89a2,2,0,0,0-1-.28,2,2,0,1,0,1.71,1c.34-.28.69-.56,1.07-.85.8-.6,1.57-1.13,2.31-1.58a13.87,13.87,0,0,0-.13,3.22c.08.93.3,2.45.3,2.45,6.88,25.8,26,14.33,28.09,10.43s1-18.12-9.17-15.59-1.49,9.17-1.49,9.17c-2.29-2.52,2.29-3.32,2.29-3.32,7.8,6.19-1.14,8.94-1.14,8.94-11,.57-12.16-8.9-12.16-8.9-1.68-6.42,5.36-10.7,13.61-11.16S267,17.73,252.66,33.17s-38.83-5.05-38.83-5.05l0-.05-.19-.24c-.21-.24-29-19.43-29-19.43,5.24-7.83,34.54-4.89,34.54-4.89C159-6.42,148.71,18.8,148.71,18.8l4.21,4.51L165.27,16A31,31,0,0,1,172.64,14.71Z"/></g></g></svg>